<?xml version="1.0" standalone="no"?><!DOCTYPE svg PUBLIC "-//W3C//DTD SVG 1.1//EN" "http://www.w3.org/Graphics/SVG/1.1/DTD/svg11.dtd"><svg t="1758014658159" class="icon" viewBox="0 0 1024 1024" version="1.1" xmlns="http://www.w3.org/2000/svg" p-id="1060" xmlns:xlink="http://www.w3.org/1999/xlink" width="64" height="64"><path d="M698.996364 353.000727H652.101818c-10.193455 0-19.898182 4.887273-25.902545 13.288728l-157.207273 218.018909-71.191273-98.816a31.976727 31.976727 0 0 0-25.902545-13.288728h-46.894546a8.029091 8.029091 0 0 0-6.516363 12.706909l124.602182 172.8c12.706909 17.687273 39.005091 17.687273 51.712 0l210.618181-292.002909a7.959273 7.959273 0 0 0-6.423272-12.706909zM512 64C264.610909 64 64 264.610909 64 512S264.610909 960 512 960 960 759.389091 960 512 759.389091 64 512 64z m0 819.991273c-205.405091 0-371.991273-166.586182-371.991273-371.991273S306.594909 140.008727 512 140.008727 883.991273 306.594909 883.991273 512 717.405091 883.991273 512 883.991273z" p-id="1061"></path></svg>