<?xml version="1.0" standalone="no"?><!DOCTYPE svg PUBLIC "-//W3C//DTD SVG 1.1//EN" "http://www.w3.org/Graphics/SVG/1.1/DTD/svg11.dtd"><svg t="1735110945195" class="icon" viewBox="0 0 1024 1024" version="1.1" xmlns="http://www.w3.org/2000/svg" p-id="1421" xmlns:xlink="http://www.w3.org/1999/xlink" width="64" height="64"><path d="M439.82848 225.28a157.57312 157.57312 0 0 0-157.51168 152.9856l-0.57344 19.90656h-38.33856A120.60672 120.60672 0 0 0 122.88 518.79936a120.54528 120.54528 0 0 0 120.5248 120.58624h390.88128a120.60672 120.60672 0 0 0 120.5248-120.60672 120.54528 120.54528 0 0 0-120.5248-120.60672h-36.39296l-0.57344-19.88608A157.5936 157.5936 0 0 0 439.82848 225.28z m-196.89472 131.93216C255.50848 259.6864 338.86208 184.32 439.82848 184.32c100.94592 0 184.32 75.3664 196.87424 172.91264a161.50528 161.50528 0 0 1 159.06816 161.54624c0 89.16992-72.2944 161.5872-161.4848 161.5872H243.42528A161.50528 161.50528 0 0 1 81.92 518.7584c0-89.00608 72.02816-161.30048 161.01376-161.56672z" fill="#666666" p-id="1422"></path><path d="M539.89376 147.7632a157.57312 157.57312 0 0 1 285.696 94.53568 20.48 20.48 0 0 0 20.48 20.48h16.44544A120.54528 120.54528 0 0 1 983.04 383.40608c0 66.56-53.98528 120.60672-120.54528 120.60672a20.48 20.48 0 0 0 0 40.96c89.21088 0 161.50528-72.41728 161.50528-161.5872a161.50528 161.50528 0 0 0-158.208-161.52576C856.8832 120.48384 771.74784 40.96 668.0576 40.96a198.16448 198.16448 0 0 0-161.44384 82.96448 20.48 20.48 0 0 0 33.30048 23.83872z" fill="#666666" p-id="1423"></path><path d="M314.94144 798.78144a26.86976 26.86976 0 0 1-36.33152 10.8544 26.86976 26.86976 0 0 1-10.87488-36.31104c6.00064-11.12064 39.0144-31.5392 48.78336-37.43744a1.90464 1.90464 0 0 1 2.92864 1.55648c0.47104 11.3664 1.49504 50.21696-4.5056 61.3376zM171.58144 942.14144a26.86976 26.86976 0 0 1-36.33152 10.8544 26.86976 26.86976 0 0 1-10.87488-36.31104c6.00064-11.12064 39.0144-31.5392 48.78336-37.43744a1.90464 1.90464 0 0 1 2.92864 1.55648c0.47104 11.3664 1.49504 50.21696-4.5056 61.3376zM212.54144 798.78144a26.86976 26.86976 0 0 1-36.33152 10.8544 26.86976 26.86976 0 0 1-10.87488-36.31104c6.00064-11.12064 39.0144-31.5392 48.78336-37.43744a1.90464 1.90464 0 0 1 2.92864 1.55648c0.47104 11.3664 1.49504 50.21696-4.5056 61.3376zM69.18144 942.14144a26.86976 26.86976 0 0 1-36.33152 10.8544 26.86976 26.86976 0 0 1-10.87488-36.31104c6.00064-11.12064 39.0144-31.5392 48.78336-37.43744a1.90464 1.90464 0 0 1 2.92864 1.55648c0.47104 11.3664 1.49504 50.21696-4.5056 61.3376zM417.34144 798.78144a26.86976 26.86976 0 0 1-36.33152 10.8544 26.86976 26.86976 0 0 1-10.87488-36.31104c6.00064-11.12064 39.0144-31.5392 48.78336-37.43744a1.90464 1.90464 0 0 1 2.92864 1.55648c0.47104 11.3664 1.49504 50.21696-4.5056 61.3376zM273.98144 942.14144a26.86976 26.86976 0 0 1-36.33152 10.8544 26.86976 26.86976 0 0 1-10.87488-36.31104c6.00064-11.12064 39.0144-31.5392 48.78336-37.43744a1.90464 1.90464 0 0 1 2.92864 1.55648c0.47104 11.3664 1.49504 50.21696-4.5056 61.3376zM519.74144 798.78144a26.86976 26.86976 0 0 1-36.33152 10.8544 26.86976 26.86976 0 0 1-10.87488-36.31104c6.00064-11.12064 39.0144-31.5392 48.78336-37.43744a1.90464 1.90464 0 0 1 2.92864 1.55648c0.47104 11.3664 1.49504 50.21696-4.5056 61.3376zM376.38144 942.14144a26.86976 26.86976 0 0 1-36.33152 10.8544 26.86976 26.86976 0 0 1-10.87488-36.31104c6.00064-11.12064 39.0144-31.5392 48.78336-37.43744a1.90464 1.90464 0 0 1 2.92864 1.55648c0.47104 11.3664 1.49504 50.21696-4.5056 61.3376zM622.14144 798.78144a26.86976 26.86976 0 0 1-36.33152 10.8544 26.86976 26.86976 0 0 1-10.87488-36.31104c6.00064-11.12064 39.0144-31.5392 48.78336-37.43744a1.90464 1.90464 0 0 1 2.92864 1.55648c0.47104 11.3664 1.49504 50.21696-4.5056 61.3376zM478.78144 942.14144a26.86976 26.86976 0 0 1-36.33152 10.8544 26.86976 26.86976 0 0 1-10.87488-36.31104c6.00064-11.12064 39.0144-31.5392 48.78336-37.43744a1.90464 1.90464 0 0 1 2.92864 1.55648c0.47104 11.3664 1.49504 50.21696-4.5056 61.3376zM724.56192 798.78144a26.86976 26.86976 0 0 1-36.33152 10.8544 26.86976 26.86976 0 0 1-10.87488-36.31104c5.98016-11.12064 39.0144-31.5392 48.78336-37.43744a1.90464 1.90464 0 0 1 2.90816 1.55648c0.47104 11.3664 1.49504 50.21696-4.5056 61.3376zM581.18144 942.14144a26.86976 26.86976 0 0 1-36.33152 10.8544 26.86976 26.86976 0 0 1-10.87488-36.31104c6.00064-11.12064 39.0144-31.5392 48.78336-37.43744a1.90464 1.90464 0 0 1 2.92864 1.55648c0.47104 11.3664 1.49504 50.21696-4.5056 61.3376z" fill="#666666" p-id="1424"></path></svg>