<?xml version="1.0" standalone="no"?><!DOCTYPE svg PUBLIC "-//W3C//DTD SVG 1.1//EN" "http://www.w3.org/Graphics/SVG/1.1/DTD/svg11.dtd"><svg t="1757660332374" class="icon" viewBox="0 0 1024 1024" version="1.1" xmlns="http://www.w3.org/2000/svg" p-id="5737" xmlns:xlink="http://www.w3.org/1999/xlink" width="32" height="32"><path d="M813.83235 661.183717c-31.585369 0-60.819181 10.190083-84.651982 27.41335l-118.764918-118.762871c24.428366-31.410384 39.029922-70.821999 39.029922-113.603361 0-42.778292-14.601556-82.189907-39.028898-113.598244l63.204507-63.207577c16.07921 10.136871 35.045167 16.096607 55.417147 16.096606 57.519018 0 104.313787-46.797839 104.313787-104.316857S786.557146 86.887906 729.038128 86.887906c-57.522088 0-104.316857 46.797839-104.316857 104.316857 0 20.369933 5.958712 39.33589 16.09456 55.414077L577.609277 309.826418c-31.40936-24.425296-70.819952-39.025828-113.599268-39.025829-42.779316 0-82.189907 14.59951-113.598244 39.025829l-77.025281-77.024258c10.137895-16.07921 16.096607-35.044144 16.096606-55.416124 0-57.519018-46.794769-104.316857-104.316857-104.316857S80.848353 119.867018 80.848353 177.386036s46.794769 104.316857 104.316857 104.316857c20.370956 0 39.33589-5.957689 55.414077-16.094559l77.025281 77.023234c-24.428366 31.410384-39.029922 70.820975-39.029922 113.599267 0 42.781362 14.600533 82.191954 39.028899 113.601315l-57.604976 57.607022c-19.989263-13.661138-44.125987-21.679765-70.111824-21.679765-68.701708 0-124.594693 55.894008-124.594693 124.597763 0 68.698638 55.894008 124.592646 124.594693 124.592646 68.704778 0 124.597763-55.894008 124.597763-124.592646 0-25.986861-8.018627-50.123584-21.679766-70.112848l57.604976-57.605999c31.410384 24.427342 70.820975 39.027875 113.601315 39.027875 42.779316 0 82.190931-14.600533 113.600291-39.027875L696.374194 721.401194c-17.226337 23.832801-27.417443 53.067636-27.417443 84.655052 0 79.884398 64.992223 144.873552 144.876622 144.873552S958.708971 885.940644 958.708971 806.057269s-64.992223-144.873552-144.876621-144.873552zM729.038128 133.284609c31.936363 0 57.918108 25.984814 57.918108 57.921177s-25.981744 57.921177-57.918108 57.921178c-31.936363 0-57.921177-25.984814-57.921177-57.921178s25.984814-57.921177 57.921177-57.921177z m-601.794095 44.101427c0-31.936363 25.984814-57.921177 57.921177-57.921177s57.921177 25.984814 57.921177 57.921177-25.984814 57.921177-57.921177 57.921178-57.921177-25.984814-57.921177-57.921178z m62.641688 631.1681c-43.119053 0-78.199013-35.07996-78.199013-78.196966 0-43.122123 35.07996-78.202083 78.199013-78.202083s78.202083 35.07996 78.202083 78.202083c0 43.117007-35.08303 78.196966-78.202083 78.196966zM464.010009 595.270519c-76.667124 0-139.039683-62.372559-139.039683-139.039684 0-76.662007 62.372559-139.034567 139.039683-139.034566s139.039683 62.372559 139.039683 139.034566c0 76.667124-62.372559 139.039683-139.039683 139.039684zM813.83235 904.534118c-54.301743 0-98.480942-44.176129-98.480942-98.477872s44.178175-98.477872 98.480942-98.477872c54.301743 0 98.480942 44.176129 98.480942 98.477872 0 54.302767-44.178175 98.477872-98.480942 98.477872z" p-id="5738" fill="#d81e06"></path></svg>